<svg id="图层_1" data-name="图层 1" xmlns="http://www.w3.org/2000/svg" viewBox="0 0 30 30"><defs><style>.cls-1{fill:#49475f;}.cls-2{fill:#fff;}</style></defs><title>社区图标-8</title><circle class="cls-1" cx="15" cy="15" r="15"/><path class="cls-2" d="M18.62,11.71a6.29,6.29,0,0,1,.7,0C18.69,8.79,15.57,6.62,12,6.62c-4,0-7.24,2.71-7.24,6.16a5.94,5.94,0,0,0,2.9,4.89L7,19.89l2.53-1.27A12.39,12.39,0,0,0,12,19h.68a5.4,5.4,0,0,1-.22-1.52,5.93,5.93,0,0,1,6.1-5.75Zm-3.89-2a.91.91,0,0,1,.19,1.81h-.19a.92.92,0,1,1,0-1.81ZM9.66,11.52a.92.92,0,1,1,0-1.81.91.91,0,0,1,0,1.81Z"/><path class="cls-2" d="M25.23,17.35c0-2.9-2.9-5.26-6.15-5.26-3.45,0-6.16,2.36-6.16,5.26s2.71,5.26,6.16,5.26a9.1,9.1,0,0,0,2.17-.36l2,1.09-.54-1.81A5.49,5.49,0,0,0,25.23,17.35Zm-8.15-.91a.73.73,0,0,1,0-1.45.74.74,0,1,1,0,1.45Zm4,0a.73.73,0,0,1,0-1.45.74.74,0,1,1,0,1.45Z"/></svg>