<svg id="图层_1" data-name="图层 1" xmlns="http://www.w3.org/2000/svg" viewBox="0 0 443.78 133.67"><defs><style>.cls-1{fill:#d5a24e;}.cls-2{fill:#070237;}</style></defs><title>dforce-logo</title><path id="_复合路径_" data-name="&lt;复合路径&gt;" class="cls-1" d="M485.88,479.05v68.18H474.21V522.92a13.95,13.95,0,0,0-13.91-14,14,14,0,0,0-9.92,23.83,12.57,12.57,0,0,0,4.52,3.06,14.52,14.52,0,0,0,5.4,1,13.27,13.27,0,0,0,5.15-1l4.18,10.41a22.76,22.76,0,0,1-10.31,2.24,24.21,24.21,0,0,1-9.87-2,23.89,23.89,0,0,1-7.83-5.5,25.33,25.33,0,0,1-5.15-8.17,27.81,27.81,0,0,1,0-19.94,25.33,25.33,0,0,1,5.15-8.17,23.92,23.92,0,0,1,7.83-5.5,24.21,24.21,0,0,1,9.87-2,22.63,22.63,0,0,1,8.36,1.46,25.47,25.47,0,0,1,6.52,3.7V479.05Z" transform="translate(-293.22 -447.4)"/><path id="_复合路径_2" data-name="&lt;复合路径&gt;" class="cls-2" d="M509.22,490.82v16.53h25.38L537.52,519h-28.3v28.21H497.55V479.15h45.81v11.67Z" transform="translate(-293.22 -447.4)"/><path id="_复合路径_3" data-name="&lt;复合路径&gt;" class="cls-2" d="M570,497.24a25.26,25.26,0,0,1,10,2,25.63,25.63,0,0,1,13.67,13.67,25.92,25.92,0,0,1,0,19.94A25.63,25.63,0,0,1,580,546.5a26.16,26.16,0,0,1-20,0,25.63,25.63,0,0,1-13.66-13.67,25.92,25.92,0,0,1,0-19.94A25.63,25.63,0,0,1,560,499.24,25.25,25.25,0,0,1,570,497.24Zm0,11.67a14,14,0,0,0-9.92,23.83,12.57,12.57,0,0,0,4.52,3.06,14.52,14.52,0,0,0,5.4,1,14.16,14.16,0,0,0,5.35-1,13.67,13.67,0,0,0,4.57-3.06,14,14,0,0,0,0-19.74A13.94,13.94,0,0,0,570,508.91Z" transform="translate(-293.22 -447.4)"/><path id="_复合路径_4" data-name="&lt;复合路径&gt;" class="cls-2" d="M622.29,498.6a19.94,19.94,0,0,1,7.83-1.46v11.67a13.51,13.51,0,0,0-9.92,4.08,13.94,13.94,0,0,0-4.08,9.92v24.41H604.44V498.51h11.67v3.79A25,25,0,0,1,622.29,498.6Z" transform="translate(-293.22 -447.4)"/><path id="_复合路径_5" data-name="&lt;复合路径&gt;" class="cls-2" d="M679.81,541a25.7,25.7,0,0,1-8.17,5.5,26.16,26.16,0,0,1-20,0,25.63,25.63,0,0,1-13.66-13.67,25.92,25.92,0,0,1,0-19.94,25.63,25.63,0,0,1,13.66-13.67,26.16,26.16,0,0,1,20,0,25.73,25.73,0,0,1,8.17,5.5L671.55,513a13.51,13.51,0,0,0-9.92-4.09A13.93,13.93,0,0,0,651.7,513a14,14,0,0,0,0,19.74,13.66,13.66,0,0,0,4.57,3.06,14.14,14.14,0,0,0,5.35,1,13.31,13.31,0,0,0,9.92-4.08Z" transform="translate(-293.22 -447.4)"/><path id="_复合路径_6" data-name="&lt;复合路径&gt;" class="cls-2" d="M724.06,528.75H698.58a12.07,12.07,0,0,0,2.82,4,13.66,13.66,0,0,0,4.57,3.06,14.14,14.14,0,0,0,5.35,1,13.64,13.64,0,0,0,7.1-1.85l12.16,4.86a24.51,24.51,0,0,1-8.46,6.37,25.75,25.75,0,0,1-34.48-13.37,25.92,25.92,0,0,1,0-19.94,25.63,25.63,0,0,1,13.66-13.67,26.16,26.16,0,0,1,20,0A25.63,25.63,0,0,1,735,512.9a25.26,25.26,0,0,1,2,10,24,24,0,0,1-.68,5.84Zm-12.74-19.84A13.93,13.93,0,0,0,701.4,513a13.18,13.18,0,0,0-2.82,4.08h25.48a13.24,13.24,0,0,0-2.82-4.08A13.51,13.51,0,0,0,711.32,508.91Z" transform="translate(-293.22 -447.4)"/><g id="_编组_" data-name="&lt;编组&gt;"><g id="_编组_2" data-name="&lt;编组&gt;"><path class="cls-2" d="M341.32,581.07H310.72V482.94h11.56v86.57h19c16.26,0,29.71-5.22,40-15.51s15.42-24.12,15.42-41.2c0-16.33-5.18-29.51-15.38-39.18S358,459,342.42,459H310.68V447.4h31.73c18.6,0,34.37,6,46.87,17.83s19,27.94,19,47.57c0,20.26-6.32,36.87-18.79,49.37S360.76,581.07,341.32,581.07Z" transform="translate(-293.22 -447.4)"/></g></g><g id="_编组_3" data-name="&lt;编组&gt;"><path class="cls-1" d="M328.27,561.66h0c17,0,31.12-4.52,42-13.43s16.63-21.18,16.63-36.08c0-14.36-5.62-26-16.71-34.57-10.87-8.41-24.63-12.13-40.88-12.13h-36.1v96.22h11.41v-85h25.84a61.13,61.13,0,0,1,18,2.51c5.34,1.65,10.21,3.61,14.46,6.9a32,32,0,0,1,9.43,11.37,33.9,33.9,0,0,1,3.15,14.83,37.19,37.19,0,0,1-3.17,15.62,33.78,33.78,0,0,1-9.47,12,44.05,44.05,0,0,1-14.66,7.86,61.76,61.76,0,0,1-18.67,2.66l-1.26,0Z" transform="translate(-293.22 -447.4)"/></g></svg>